<?xml version="1.0" encoding="UTF-8" standalone="no"?>
<!DOCTYPE svg PUBLIC "-//W3C//DTD SVG 1.1//EN"
 "http://www.w3.org/Graphics/SVG/1.1/DTD/svg11.dtd">
<!-- Generated by graphviz version 2.47.3 (20210619.1520)
 -->
<!-- Title: dependencies Pages: 1 -->
<svg width="3309pt" height="247pt"
 viewBox="0.00 0.00 3309.00 246.80" xmlns="http://www.w3.org/2000/svg" xmlns:xlink="http://www.w3.org/1999/xlink">
<g id="graph0" class="graph" transform="scale(1 1) rotate(0) translate(4 242.8)">
<title>dependencies</title>
<polygon fill="white" stroke="transparent" points="-4,4 -4,-242.8 3305,-242.8 3305,4 -4,4"/>
<text text-anchor="middle" x="1650.5" y="-8.2" font-family="sans-serif" font-size="14.00">dependencies</text>
<g id="clust1" class="cluster">
<title>cluster_AppModule</title>
<polygon fill="none" stroke="black" stroke-dasharray="1,5" points="8,-32.8 8,-230.8 3293,-230.8 3293,-32.8 8,-32.8"/>
</g>
<g id="clust16" class="cluster">
<title>cluster_AppModule_imports</title>
<polygon fill="none" stroke="black" points="2485,-40.8 2485,-92.8 3285,-92.8 3285,-40.8 2485,-40.8"/>
</g>
<g id="clust18" class="cluster">
<title>cluster_AppModule_bootstrap</title>
<polygon fill="none" stroke="black" points="1484,-170.8 1484,-222.8 1608,-222.8 1608,-170.8 1484,-170.8"/>
</g>
<g id="clust19" class="cluster">
<title>cluster_AppModule_providers</title>
<polygon fill="none" stroke="black" points="1949,-40.8 1949,-92.8 2477,-92.8 2477,-40.8 1949,-40.8"/>
</g>
<g id="clust2" class="cluster">
<title>cluster_AppModule_declarations</title>
<polygon fill="none" stroke="black" points="16,-40.8 16,-92.8 1941,-92.8 1941,-40.8 16,-40.8"/>
</g>
<!-- AppComponent -->
<g id="node1" class="node">
<title>AppComponent</title>
<polygon fill="#ffffb3" stroke="black" points="1932.94,-84.8 1827.06,-84.8 1827.06,-48.8 1932.94,-48.8 1932.94,-84.8"/>
<text text-anchor="middle" x="1880" y="-62.6" font-family="Times,serif" font-size="14.00">AppComponent</text>
</g>
<!-- AppModule -->
<g id="node14" class="node">
<title>AppModule</title>
<polygon fill="#8dd3c7" stroke="black" points="1587.66,-149.8 1584.66,-153.8 1563.66,-153.8 1560.66,-149.8 1504.34,-149.8 1504.34,-113.8 1587.66,-113.8 1587.66,-149.8"/>
<text text-anchor="middle" x="1546" y="-127.6" font-family="Times,serif" font-size="14.00">AppModule</text>
</g>
<!-- AppComponent&#45;&gt;AppModule -->
<g id="edge1" class="edge">
<title>AppComponent&#45;&gt;AppModule</title>
<path fill="none" stroke="black" d="M1880,-84.81C1880,-100.85 1880,-121.8 1880,-121.8 1880,-121.8 1597.96,-121.8 1597.96,-121.8"/>
<polygon fill="black" stroke="black" points="1597.96,-118.3 1587.96,-121.8 1597.96,-125.3 1597.96,-118.3"/>
</g>
<!-- MenuComponent -->
<g id="node2" class="node">
<title>MenuComponent</title>
<polygon fill="#ffffb3" stroke="black" points="1808.99,-84.8 1695.01,-84.8 1695.01,-48.8 1808.99,-48.8 1808.99,-84.8"/>
<text text-anchor="middle" x="1752" y="-62.6" font-family="Times,serif" font-size="14.00">MenuComponent</text>
</g>
<!-- MenuComponent&#45;&gt;AppModule -->
<g id="edge2" class="edge">
<title>MenuComponent&#45;&gt;AppModule</title>
<path fill="none" stroke="black" d="M1752,-84.92C1752,-99.58 1752,-117.8 1752,-117.8 1752,-117.8 1597.69,-117.8 1597.69,-117.8"/>
<polygon fill="black" stroke="black" points="1597.69,-114.3 1587.69,-117.8 1597.69,-121.3 1597.69,-114.3"/>
</g>
<!-- RodapeComponent -->
<g id="node3" class="node">
<title>RodapeComponent</title>
<polygon fill="#ffffb3" stroke="black" points="1677.1,-84.8 1552.9,-84.8 1552.9,-48.8 1677.1,-48.8 1677.1,-84.8"/>
<text text-anchor="middle" x="1615" y="-62.6" font-family="Times,serif" font-size="14.00">RodapeComponent</text>
</g>
<!-- RodapeComponent&#45;&gt;AppModule -->
<g id="edge3" class="edge">
<title>RodapeComponent&#45;&gt;AppModule</title>
<path fill="none" stroke="black" d="M1570.39,-84.91C1570.39,-84.91 1570.39,-103.79 1570.39,-103.79"/>
<polygon fill="black" stroke="black" points="1566.89,-103.79 1570.39,-113.79 1573.89,-103.79 1566.89,-103.79"/>
</g>
<!-- EntrarComponent -->
<g id="node4" class="node">
<title>EntrarComponent</title>
<polygon fill="#ffffb3" stroke="black" points="1535.31,-84.8 1418.69,-84.8 1418.69,-48.8 1535.31,-48.8 1535.31,-84.8"/>
<text text-anchor="middle" x="1477" y="-62.6" font-family="Times,serif" font-size="14.00">EntrarComponent</text>
</g>
<!-- EntrarComponent&#45;&gt;AppModule -->
<g id="edge4" class="edge">
<title>EntrarComponent&#45;&gt;AppModule</title>
<path fill="none" stroke="black" d="M1519.66,-84.91C1519.66,-84.91 1519.66,-103.79 1519.66,-103.79"/>
<polygon fill="black" stroke="black" points="1516.16,-103.79 1519.66,-113.79 1523.16,-103.79 1516.16,-103.79"/>
</g>
<!-- CadastrarComponent -->
<g id="node5" class="node">
<title>CadastrarComponent</title>
<polygon fill="#ffffb3" stroke="black" points="1400.47,-84.8 1265.53,-84.8 1265.53,-48.8 1400.47,-48.8 1400.47,-84.8"/>
<text text-anchor="middle" x="1333" y="-62.6" font-family="Times,serif" font-size="14.00">CadastrarComponent</text>
</g>
<!-- CadastrarComponent&#45;&gt;AppModule -->
<g id="edge5" class="edge">
<title>CadastrarComponent&#45;&gt;AppModule</title>
<path fill="none" stroke="black" d="M1333,-84.92C1333,-99.58 1333,-117.8 1333,-117.8 1333,-117.8 1494.17,-117.8 1494.17,-117.8"/>
<polygon fill="black" stroke="black" points="1494.17,-121.3 1504.17,-117.8 1494.17,-114.3 1494.17,-121.3"/>
</g>
<!-- InicioComponent -->
<g id="node6" class="node">
<title>InicioComponent</title>
<polygon fill="#ffffb3" stroke="black" points="1247.99,-84.8 1134.01,-84.8 1134.01,-48.8 1247.99,-48.8 1247.99,-84.8"/>
<text text-anchor="middle" x="1191" y="-62.6" font-family="Times,serif" font-size="14.00">InicioComponent</text>
</g>
<!-- InicioComponent&#45;&gt;AppModule -->
<g id="edge6" class="edge">
<title>InicioComponent&#45;&gt;AppModule</title>
<path fill="none" stroke="black" d="M1191,-84.81C1191,-100.85 1191,-121.8 1191,-121.8 1191,-121.8 1494.23,-121.8 1494.23,-121.8"/>
<polygon fill="black" stroke="black" points="1494.23,-125.3 1504.23,-121.8 1494.23,-118.3 1494.23,-125.3"/>
</g>
<!-- TemaComponent -->
<g id="node7" class="node">
<title>TemaComponent</title>
<polygon fill="#ffffb3" stroke="black" points="1115.7,-84.8 1002.3,-84.8 1002.3,-48.8 1115.7,-48.8 1115.7,-84.8"/>
<text text-anchor="middle" x="1059" y="-62.6" font-family="Times,serif" font-size="14.00">TemaComponent</text>
</g>
<!-- TemaComponent&#45;&gt;AppModule -->
<g id="edge7" class="edge">
<title>TemaComponent&#45;&gt;AppModule</title>
<path fill="none" stroke="black" d="M1059,-84.83C1059,-101.86 1059,-124.8 1059,-124.8 1059,-124.8 1494.06,-124.8 1494.06,-124.8"/>
<polygon fill="black" stroke="black" points="1494.06,-128.3 1504.06,-124.8 1494.06,-121.3 1494.06,-128.3"/>
</g>
<!-- TemaEditComponent -->
<g id="node8" class="node">
<title>TemaEditComponent</title>
<polygon fill="#ffffb3" stroke="black" points="984.04,-84.8 847.96,-84.8 847.96,-48.8 984.04,-48.8 984.04,-84.8"/>
<text text-anchor="middle" x="916" y="-62.6" font-family="Times,serif" font-size="14.00">TemaEditComponent</text>
</g>
<!-- TemaEditComponent&#45;&gt;AppModule -->
<g id="edge8" class="edge">
<title>TemaEditComponent&#45;&gt;AppModule</title>
<path fill="none" stroke="black" d="M916,-85.07C916,-103.36 916,-128.8 916,-128.8 916,-128.8 1494.18,-128.8 1494.18,-128.8"/>
<polygon fill="black" stroke="black" points="1494.18,-132.3 1504.18,-128.8 1494.18,-125.3 1494.18,-132.3"/>
</g>
<!-- TemaDeleteComponent -->
<g id="node9" class="node">
<title>TemaDeleteComponent</title>
<polygon fill="#ffffb3" stroke="black" points="829.74,-84.8 680.26,-84.8 680.26,-48.8 829.74,-48.8 829.74,-84.8"/>
<text text-anchor="middle" x="755" y="-62.6" font-family="Times,serif" font-size="14.00">TemaDeleteComponent</text>
</g>
<!-- TemaDeleteComponent&#45;&gt;AppModule -->
<g id="edge9" class="edge">
<title>TemaDeleteComponent&#45;&gt;AppModule</title>
<path fill="none" stroke="black" d="M755,-84.91C755,-104.14 755,-131.8 755,-131.8 755,-131.8 1494.31,-131.8 1494.31,-131.8"/>
<polygon fill="black" stroke="black" points="1494.31,-135.3 1504.31,-131.8 1494.31,-128.3 1494.31,-135.3"/>
</g>
<!-- PostagemEditComponent -->
<g id="node10" class="node">
<title>PostagemEditComponent</title>
<polygon fill="#ffffb3" stroke="black" points="662.6,-84.8 503.4,-84.8 503.4,-48.8 662.6,-48.8 662.6,-84.8"/>
<text text-anchor="middle" x="583" y="-62.6" font-family="Times,serif" font-size="14.00">PostagemEditComponent</text>
</g>
<!-- PostagemEditComponent&#45;&gt;AppModule -->
<g id="edge10" class="edge">
<title>PostagemEditComponent&#45;&gt;AppModule</title>
<path fill="none" stroke="black" d="M583,-84.93C583,-105.37 583,-135.8 583,-135.8 583,-135.8 1494.31,-135.8 1494.31,-135.8"/>
<polygon fill="black" stroke="black" points="1494.31,-139.3 1504.31,-135.8 1494.31,-132.3 1494.31,-139.3"/>
</g>
<!-- PostagemDeleteComponent -->
<g id="node11" class="node">
<title>PostagemDeleteComponent</title>
<polygon fill="#ffffb3" stroke="black" points="485.3,-84.8 312.7,-84.8 312.7,-48.8 485.3,-48.8 485.3,-84.8"/>
<text text-anchor="middle" x="399" y="-62.6" font-family="Times,serif" font-size="14.00">PostagemDeleteComponent</text>
</g>
<!-- PostagemDeleteComponent&#45;&gt;AppModule -->
<g id="edge11" class="edge">
<title>PostagemDeleteComponent&#45;&gt;AppModule</title>
<path fill="none" stroke="black" d="M399,-84.84C399,-106.46 399,-139.8 399,-139.8 399,-139.8 1494.16,-139.8 1494.16,-139.8"/>
<polygon fill="black" stroke="black" points="1494.16,-143.3 1504.16,-139.8 1494.16,-136.3 1494.16,-143.3"/>
</g>
<!-- UserEditComponent -->
<g id="node12" class="node">
<title>UserEditComponent</title>
<polygon fill="#ffffb3" stroke="black" points="294.59,-84.8 163.41,-84.8 163.41,-48.8 294.59,-48.8 294.59,-84.8"/>
<text text-anchor="middle" x="229" y="-62.6" font-family="Times,serif" font-size="14.00">UserEditComponent</text>
</g>
<!-- UserEditComponent&#45;&gt;AppModule -->
<g id="edge12" class="edge">
<title>UserEditComponent&#45;&gt;AppModule</title>
<path fill="none" stroke="black" d="M229,-84.81C229,-107.29 229,-142.8 229,-142.8 229,-142.8 1494.04,-142.8 1494.04,-142.8"/>
<polygon fill="black" stroke="black" points="1494.04,-146.3 1504.04,-142.8 1494.04,-139.3 1494.04,-146.3"/>
</g>
<!-- AlertasComponent -->
<g id="node13" class="node">
<title>AlertasComponent</title>
<polygon fill="#ffffb3" stroke="black" points="145.75,-84.8 24.25,-84.8 24.25,-48.8 145.75,-48.8 145.75,-84.8"/>
<text text-anchor="middle" x="85" y="-62.6" font-family="Times,serif" font-size="14.00">AlertasComponent</text>
</g>
<!-- AlertasComponent&#45;&gt;AppModule -->
<g id="edge13" class="edge">
<title>AlertasComponent&#45;&gt;AppModule</title>
<path fill="none" stroke="black" d="M85,-84.95C85,-108.56 85,-146.8 85,-146.8 85,-146.8 1494.24,-146.8 1494.24,-146.8"/>
<polygon fill="black" stroke="black" points="1494.24,-150.3 1504.24,-146.8 1494.24,-143.3 1494.24,-150.3"/>
</g>
<!-- AppComponent  -->
<g id="node21" class="node">
<title>AppComponent </title>
<polygon fill="#80b1d3" stroke="black" points="1600.44,-214.8 1491.56,-214.8 1491.56,-178.8 1600.44,-178.8 1600.44,-214.8"/>
<text text-anchor="middle" x="1546" y="-192.6" font-family="Times,serif" font-size="14.00">AppComponent </text>
</g>
<!-- AppModule&#45;&gt;AppComponent  -->
<g id="edge20" class="edge">
<title>AppModule&#45;&gt;AppComponent </title>
<path fill="none" stroke="black" stroke-dasharray="1,5" d="M1546,-149.91C1546,-149.91 1546,-168.79 1546,-168.79"/>
<polygon fill="black" stroke="black" points="1542.5,-168.79 1546,-178.79 1549.5,-168.79 1542.5,-168.79"/>
</g>
<!-- BrowserModule -->
<g id="node15" class="node">
<title>BrowserModule</title>
<polygon fill="#8dd3c7" stroke="black" points="3277.47,-84.8 3274.47,-88.8 3253.47,-88.8 3250.47,-84.8 3170.53,-84.8 3170.53,-48.8 3277.47,-48.8 3277.47,-84.8"/>
<text text-anchor="middle" x="3224" y="-62.6" font-family="Times,serif" font-size="14.00">BrowserModule</text>
</g>
<!-- BrowserModule&#45;&gt;AppModule -->
<g id="edge14" class="edge">
<title>BrowserModule&#45;&gt;AppModule</title>
<path fill="none" stroke="black" d="M3224,-84.95C3224,-108.56 3224,-146.8 3224,-146.8 3224,-146.8 1597.9,-146.8 1597.9,-146.8"/>
<polygon fill="black" stroke="black" points="1597.9,-143.3 1587.9,-146.8 1597.9,-150.3 1597.9,-143.3"/>
</g>
<!-- AppRoutingModule -->
<g id="node16" class="node">
<title>AppRoutingModule</title>
<polygon fill="#8dd3c7" stroke="black" points="3152.27,-84.8 3149.27,-88.8 3128.27,-88.8 3125.27,-84.8 3023.73,-84.8 3023.73,-48.8 3152.27,-48.8 3152.27,-84.8"/>
<text text-anchor="middle" x="3088" y="-62.6" font-family="Times,serif" font-size="14.00">AppRoutingModule</text>
</g>
<!-- AppRoutingModule&#45;&gt;AppModule -->
<g id="edge15" class="edge">
<title>AppRoutingModule&#45;&gt;AppModule</title>
<path fill="none" stroke="black" d="M3088,-84.81C3088,-107.29 3088,-142.8 3088,-142.8 3088,-142.8 1598.04,-142.8 1598.04,-142.8"/>
<polygon fill="black" stroke="black" points="1598.04,-139.3 1588.04,-142.8 1598.04,-146.3 1598.04,-139.3"/>
</g>
<!-- HttpClientModule -->
<g id="node17" class="node">
<title>HttpClientModule</title>
<polygon fill="#8dd3c7" stroke="black" points="3005.16,-84.8 3002.16,-88.8 2981.16,-88.8 2978.16,-84.8 2886.84,-84.8 2886.84,-48.8 3005.16,-48.8 3005.16,-84.8"/>
<text text-anchor="middle" x="2946" y="-62.6" font-family="Times,serif" font-size="14.00">HttpClientModule</text>
</g>
<!-- HttpClientModule&#45;&gt;AppModule -->
<g id="edge16" class="edge">
<title>HttpClientModule&#45;&gt;AppModule</title>
<path fill="none" stroke="black" d="M2946,-84.84C2946,-106.46 2946,-139.8 2946,-139.8 2946,-139.8 1597.9,-139.8 1597.9,-139.8"/>
<polygon fill="black" stroke="black" points="1597.9,-136.3 1587.9,-139.8 1597.9,-143.3 1597.9,-136.3"/>
</g>
<!-- FormsModule -->
<g id="node18" class="node">
<title>FormsModule</title>
<polygon fill="#8dd3c7" stroke="black" points="2868.83,-84.8 2865.83,-88.8 2844.83,-88.8 2841.83,-84.8 2773.17,-84.8 2773.17,-48.8 2868.83,-48.8 2868.83,-84.8"/>
<text text-anchor="middle" x="2821" y="-62.6" font-family="Times,serif" font-size="14.00">FormsModule</text>
</g>
<!-- FormsModule&#45;&gt;AppModule -->
<g id="edge17" class="edge">
<title>FormsModule&#45;&gt;AppModule</title>
<path fill="none" stroke="black" d="M2821,-84.93C2821,-105.37 2821,-135.8 2821,-135.8 2821,-135.8 1597.7,-135.8 1597.7,-135.8"/>
<polygon fill="black" stroke="black" points="1597.7,-132.3 1587.7,-135.8 1597.7,-139.3 1597.7,-132.3"/>
</g>
<!-- ModalModule.forRoot() -->
<g id="node19" class="node">
<title>ModalModule.forRoot()</title>
<polygon fill="#8dd3c7" stroke="black" points="2755.47,-84.8 2752.47,-88.8 2731.47,-88.8 2728.47,-84.8 2602.53,-84.8 2602.53,-48.8 2755.47,-48.8 2755.47,-84.8"/>
<text text-anchor="middle" x="2679" y="-62.6" font-family="Times,serif" font-size="14.00">ModalModule.forRoot()</text>
</g>
<!-- ModalModule.forRoot()&#45;&gt;AppModule -->
<g id="edge18" class="edge">
<title>ModalModule.forRoot()&#45;&gt;AppModule</title>
<path fill="none" stroke="black" d="M2679,-84.91C2679,-104.14 2679,-131.8 2679,-131.8 2679,-131.8 1597.67,-131.8 1597.67,-131.8"/>
<polygon fill="black" stroke="black" points="1597.67,-128.3 1587.67,-131.8 1597.67,-135.3 1597.67,-128.3"/>
</g>
<!-- OrderModule -->
<g id="node20" class="node">
<title>OrderModule</title>
<polygon fill="#8dd3c7" stroke="black" points="2585.19,-84.8 2582.19,-88.8 2561.19,-88.8 2558.19,-84.8 2492.81,-84.8 2492.81,-48.8 2585.19,-48.8 2585.19,-84.8"/>
<text text-anchor="middle" x="2539" y="-62.6" font-family="Times,serif" font-size="14.00">OrderModule</text>
</g>
<!-- OrderModule&#45;&gt;AppModule -->
<g id="edge19" class="edge">
<title>OrderModule&#45;&gt;AppModule</title>
<path fill="none" stroke="black" d="M2539,-85.07C2539,-103.36 2539,-128.8 2539,-128.8 2539,-128.8 1597.72,-128.8 1597.72,-128.8"/>
<polygon fill="black" stroke="black" points="1597.72,-125.3 1587.72,-128.8 1597.72,-132.3 1597.72,-125.3"/>
</g>
<!-- { provide: LocationStrategy, useClass: HashLocationStrategy } -->
<g id="node22" class="node">
<title>{ provide: LocationStrategy, useClass: HashLocationStrategy }</title>
<ellipse fill="#fdb462" stroke="black" cx="2213" cy="-66.8" rx="256.11" ry="18"/>
<text text-anchor="middle" x="2213" y="-62.6" font-family="Times,serif" font-size="14.00">{ provide: LocationStrategy, useClass: HashLocationStrategy }</text>
</g>
<!-- { provide: LocationStrategy, useClass: HashLocationStrategy }&#45;&gt;AppModule -->
<g id="edge21" class="edge">
<title>{ provide: LocationStrategy, useClass: HashLocationStrategy }&#45;&gt;AppModule</title>
<path fill="none" stroke="black" d="M2213,-84.83C2213,-101.86 2213,-124.8 2213,-124.8 2213,-124.8 1597.72,-124.8 1597.72,-124.8"/>
<polygon fill="black" stroke="black" points="1597.72,-121.3 1587.72,-124.8 1597.72,-128.3 1597.72,-121.3"/>
</g>
</g>
</svg>
