<?xml version="1.0" encoding="UTF-8" standalone="no"?>
<!DOCTYPE svg PUBLIC "-//W3C//DTD SVG 1.1//EN"
 "http://www.w3.org/Graphics/SVG/1.1/DTD/svg11.dtd">
<!-- Generated by graphviz version 2.47.3 (20210619.1520)
 -->
<!-- Title: dependencies Pages: 1 -->
<svg width="3653pt" height="253pt"
 viewBox="0.00 0.00 3653.00 252.80" xmlns="http://www.w3.org/2000/svg" xmlns:xlink="http://www.w3.org/1999/xlink">
<g id="graph0" class="graph" transform="scale(1 1) rotate(0) translate(4 248.8)">
<title>dependencies</title>
<polygon fill="white" stroke="transparent" points="-4,4 -4,-248.8 3649,-248.8 3649,4 -4,4"/>
<text text-anchor="middle" x="1822.5" y="-8.2" font-family="sans-serif" font-size="14.00">dependencies</text>
<g id="clust1" class="cluster">
<title>cluster_AppModule</title>
<polygon fill="none" stroke="black" stroke-dasharray="1,5" points="8,-32.8 8,-236.8 3293,-236.8 3293,-32.8 8,-32.8"/>
</g>
<g id="clust2" class="cluster">
<title>cluster_AppModule_declarations</title>
<polygon fill="none" stroke="black" points="552,-40.8 552,-92.8 2477,-92.8 2477,-40.8 552,-40.8"/>
</g>
<g id="clust16" class="cluster">
<title>cluster_AppModule_imports</title>
<polygon fill="none" stroke="black" points="2485,-40.8 2485,-92.8 3285,-92.8 3285,-40.8 2485,-40.8"/>
</g>
<g id="clust18" class="cluster">
<title>cluster_AppModule_bootstrap</title>
<polygon fill="none" stroke="black" points="1879,-176.8 1879,-228.8 2003,-228.8 2003,-176.8 1879,-176.8"/>
</g>
<g id="clust19" class="cluster">
<title>cluster_AppModule_providers</title>
<polygon fill="none" stroke="black" points="16,-40.8 16,-92.8 544,-92.8 544,-40.8 16,-40.8"/>
</g>
<g id="clust20" class="cluster">
<title>cluster_AppRoutingModule</title>
<polygon fill="none" stroke="black" stroke-dasharray="1,5" points="3301,-100.8 3301,-168.8 3637,-168.8 3637,-100.8 3301,-100.8"/>
</g>
<g id="clust22" class="cluster">
<title>cluster_AppRoutingModule_imports</title>
<polygon fill="none" stroke="black" points="3435,-108.8 3435,-160.8 3629,-160.8 3629,-108.8 3435,-108.8"/>
</g>
<g id="clust23" class="cluster">
<title>cluster_AppRoutingModule_exports</title>
<polygon fill="none" stroke="black" points="3309,-108.8 3309,-160.8 3427,-160.8 3427,-108.8 3309,-108.8"/>
</g>
<!-- AppComponent -->
<g id="node1" class="node">
<title>AppComponent</title>
<polygon fill="#ffffb3" stroke="black" points="2468.94,-84.8 2363.06,-84.8 2363.06,-48.8 2468.94,-48.8 2468.94,-84.8"/>
<text text-anchor="middle" x="2416" y="-62.6" font-family="Times,serif" font-size="14.00">AppComponent</text>
</g>
<!-- AppModule -->
<g id="node14" class="node">
<title>AppModule</title>
<polygon fill="#8dd3c7" stroke="black" points="1982.66,-152.8 1979.66,-156.8 1958.66,-156.8 1955.66,-152.8 1899.34,-152.8 1899.34,-116.8 1982.66,-116.8 1982.66,-152.8"/>
<text text-anchor="middle" x="1941" y="-130.6" font-family="Times,serif" font-size="14.00">AppModule</text>
</g>
<!-- AppComponent&#45;&gt;AppModule -->
<g id="edge1" class="edge">
<title>AppComponent&#45;&gt;AppModule</title>
<path fill="none" stroke="black" d="M2416,-85.1C2416,-103.07 2416,-127.8 2416,-127.8 2416,-127.8 1992.74,-127.8 1992.74,-127.8"/>
<polygon fill="black" stroke="black" points="1992.74,-124.3 1982.74,-127.8 1992.74,-131.3 1992.74,-124.3"/>
</g>
<!-- MenuComponent -->
<g id="node2" class="node">
<title>MenuComponent</title>
<polygon fill="#ffffb3" stroke="black" points="2344.99,-84.8 2231.01,-84.8 2231.01,-48.8 2344.99,-48.8 2344.99,-84.8"/>
<text text-anchor="middle" x="2288" y="-62.6" font-family="Times,serif" font-size="14.00">MenuComponent</text>
</g>
<!-- MenuComponent&#45;&gt;AppModule -->
<g id="edge2" class="edge">
<title>MenuComponent&#45;&gt;AppModule</title>
<path fill="none" stroke="black" d="M2288,-84.83C2288,-101.86 2288,-124.8 2288,-124.8 2288,-124.8 1992.86,-124.8 1992.86,-124.8"/>
<polygon fill="black" stroke="black" points="1992.86,-121.3 1982.86,-124.8 1992.86,-128.3 1992.86,-121.3"/>
</g>
<!-- RodapeComponent -->
<g id="node3" class="node">
<title>RodapeComponent</title>
<polygon fill="#ffffb3" stroke="black" points="2213.1,-84.8 2088.9,-84.8 2088.9,-48.8 2213.1,-48.8 2213.1,-84.8"/>
<text text-anchor="middle" x="2151" y="-62.6" font-family="Times,serif" font-size="14.00">RodapeComponent</text>
</g>
<!-- RodapeComponent&#45;&gt;AppModule -->
<g id="edge3" class="edge">
<title>RodapeComponent&#45;&gt;AppModule</title>
<path fill="none" stroke="black" d="M2151,-85.08C2151,-100.75 2151,-120.8 2151,-120.8 2151,-120.8 1992.74,-120.8 1992.74,-120.8"/>
<polygon fill="black" stroke="black" points="1992.74,-117.3 1982.74,-120.8 1992.74,-124.3 1992.74,-117.3"/>
</g>
<!-- EntrarComponent -->
<g id="node4" class="node">
<title>EntrarComponent</title>
<polygon fill="#ffffb3" stroke="black" points="2071.31,-84.8 1954.69,-84.8 1954.69,-48.8 2071.31,-48.8 2071.31,-84.8"/>
<text text-anchor="middle" x="2013" y="-62.6" font-family="Times,serif" font-size="14.00">EntrarComponent</text>
</g>
<!-- EntrarComponent&#45;&gt;AppModule -->
<g id="edge4" class="edge">
<title>EntrarComponent&#45;&gt;AppModule</title>
<path fill="none" stroke="black" d="M1968.84,-85.02C1968.84,-85.02 1968.84,-106.53 1968.84,-106.53"/>
<polygon fill="black" stroke="black" points="1965.34,-106.53 1968.84,-116.53 1972.34,-106.53 1965.34,-106.53"/>
</g>
<!-- CadastrarComponent -->
<g id="node5" class="node">
<title>CadastrarComponent</title>
<polygon fill="#ffffb3" stroke="black" points="1936.47,-84.8 1801.53,-84.8 1801.53,-48.8 1936.47,-48.8 1936.47,-84.8"/>
<text text-anchor="middle" x="1869" y="-62.6" font-family="Times,serif" font-size="14.00">CadastrarComponent</text>
</g>
<!-- CadastrarComponent&#45;&gt;AppModule -->
<g id="edge5" class="edge">
<title>CadastrarComponent&#45;&gt;AppModule</title>
<path fill="none" stroke="black" d="M1917.83,-85.02C1917.83,-85.02 1917.83,-106.53 1917.83,-106.53"/>
<polygon fill="black" stroke="black" points="1914.33,-106.53 1917.83,-116.53 1921.33,-106.53 1914.33,-106.53"/>
</g>
<!-- InicioComponent -->
<g id="node6" class="node">
<title>InicioComponent</title>
<polygon fill="#ffffb3" stroke="black" points="1783.99,-84.8 1670.01,-84.8 1670.01,-48.8 1783.99,-48.8 1783.99,-84.8"/>
<text text-anchor="middle" x="1727" y="-62.6" font-family="Times,serif" font-size="14.00">InicioComponent</text>
</g>
<!-- InicioComponent&#45;&gt;AppModule -->
<g id="edge6" class="edge">
<title>InicioComponent&#45;&gt;AppModule</title>
<path fill="none" stroke="black" d="M1727,-85.08C1727,-100.75 1727,-120.8 1727,-120.8 1727,-120.8 1889.23,-120.8 1889.23,-120.8"/>
<polygon fill="black" stroke="black" points="1889.23,-124.3 1899.23,-120.8 1889.23,-117.3 1889.23,-124.3"/>
</g>
<!-- TemaComponent -->
<g id="node7" class="node">
<title>TemaComponent</title>
<polygon fill="#ffffb3" stroke="black" points="1651.7,-84.8 1538.3,-84.8 1538.3,-48.8 1651.7,-48.8 1651.7,-84.8"/>
<text text-anchor="middle" x="1595" y="-62.6" font-family="Times,serif" font-size="14.00">TemaComponent</text>
</g>
<!-- TemaComponent&#45;&gt;AppModule -->
<g id="edge7" class="edge">
<title>TemaComponent&#45;&gt;AppModule</title>
<path fill="none" stroke="black" d="M1595,-84.83C1595,-101.86 1595,-124.8 1595,-124.8 1595,-124.8 1889.26,-124.8 1889.26,-124.8"/>
<polygon fill="black" stroke="black" points="1889.26,-128.3 1899.26,-124.8 1889.26,-121.3 1889.26,-128.3"/>
</g>
<!-- TemaEditComponent -->
<g id="node8" class="node">
<title>TemaEditComponent</title>
<polygon fill="#ffffb3" stroke="black" points="1520.04,-84.8 1383.96,-84.8 1383.96,-48.8 1520.04,-48.8 1520.04,-84.8"/>
<text text-anchor="middle" x="1452" y="-62.6" font-family="Times,serif" font-size="14.00">TemaEditComponent</text>
</g>
<!-- TemaEditComponent&#45;&gt;AppModule -->
<g id="edge8" class="edge">
<title>TemaEditComponent&#45;&gt;AppModule</title>
<path fill="none" stroke="black" d="M1452,-85.1C1452,-103.07 1452,-127.8 1452,-127.8 1452,-127.8 1889.31,-127.8 1889.31,-127.8"/>
<polygon fill="black" stroke="black" points="1889.31,-131.3 1899.31,-127.8 1889.31,-124.3 1889.31,-131.3"/>
</g>
<!-- TemaDeleteComponent -->
<g id="node9" class="node">
<title>TemaDeleteComponent</title>
<polygon fill="#ffffb3" stroke="black" points="1365.74,-84.8 1216.26,-84.8 1216.26,-48.8 1365.74,-48.8 1365.74,-84.8"/>
<text text-anchor="middle" x="1291" y="-62.6" font-family="Times,serif" font-size="14.00">TemaDeleteComponent</text>
</g>
<!-- TemaDeleteComponent&#45;&gt;AppModule -->
<g id="edge9" class="edge">
<title>TemaDeleteComponent&#45;&gt;AppModule</title>
<path fill="none" stroke="black" d="M1291,-84.91C1291,-104.14 1291,-131.8 1291,-131.8 1291,-131.8 1888.85,-131.8 1888.85,-131.8"/>
<polygon fill="black" stroke="black" points="1888.85,-135.3 1898.85,-131.8 1888.85,-128.3 1888.85,-135.3"/>
</g>
<!-- PostagemEditComponent -->
<g id="node10" class="node">
<title>PostagemEditComponent</title>
<polygon fill="#ffffb3" stroke="black" points="1198.6,-84.8 1039.4,-84.8 1039.4,-48.8 1198.6,-48.8 1198.6,-84.8"/>
<text text-anchor="middle" x="1119" y="-62.6" font-family="Times,serif" font-size="14.00">PostagemEditComponent</text>
</g>
<!-- PostagemEditComponent&#45;&gt;AppModule -->
<g id="edge10" class="edge">
<title>PostagemEditComponent&#45;&gt;AppModule</title>
<path fill="none" stroke="black" d="M1119,-85.02C1119,-105.17 1119,-134.8 1119,-134.8 1119,-134.8 1889.11,-134.8 1889.11,-134.8"/>
<polygon fill="black" stroke="black" points="1889.11,-138.3 1899.11,-134.8 1889.11,-131.3 1889.11,-138.3"/>
</g>
<!-- PostagemDeleteComponent -->
<g id="node11" class="node">
<title>PostagemDeleteComponent</title>
<polygon fill="#ffffb3" stroke="black" points="1021.3,-84.8 848.7,-84.8 848.7,-48.8 1021.3,-48.8 1021.3,-84.8"/>
<text text-anchor="middle" x="935" y="-62.6" font-family="Times,serif" font-size="14.00">PostagemDeleteComponent</text>
</g>
<!-- PostagemDeleteComponent&#45;&gt;AppModule -->
<g id="edge11" class="edge">
<title>PostagemDeleteComponent&#45;&gt;AppModule</title>
<path fill="none" stroke="black" d="M935,-84.97C935,-106.3 935,-138.8 935,-138.8 935,-138.8 1889.05,-138.8 1889.05,-138.8"/>
<polygon fill="black" stroke="black" points="1889.05,-142.3 1899.05,-138.8 1889.05,-135.3 1889.05,-142.3"/>
</g>
<!-- UserEditComponent -->
<g id="node12" class="node">
<title>UserEditComponent</title>
<polygon fill="#ffffb3" stroke="black" points="830.59,-84.8 699.41,-84.8 699.41,-48.8 830.59,-48.8 830.59,-84.8"/>
<text text-anchor="middle" x="765" y="-62.6" font-family="Times,serif" font-size="14.00">UserEditComponent</text>
</g>
<!-- UserEditComponent&#45;&gt;AppModule -->
<g id="edge12" class="edge">
<title>UserEditComponent&#45;&gt;AppModule</title>
<path fill="none" stroke="black" d="M765,-84.81C765,-107.29 765,-142.8 765,-142.8 765,-142.8 1889.15,-142.8 1889.15,-142.8"/>
<polygon fill="black" stroke="black" points="1889.15,-146.3 1899.15,-142.8 1889.15,-139.3 1889.15,-146.3"/>
</g>
<!-- AlertasComponent -->
<g id="node13" class="node">
<title>AlertasComponent</title>
<polygon fill="#ffffb3" stroke="black" points="681.75,-84.8 560.25,-84.8 560.25,-48.8 681.75,-48.8 681.75,-84.8"/>
<text text-anchor="middle" x="621" y="-62.6" font-family="Times,serif" font-size="14.00">AlertasComponent</text>
</g>
<!-- AlertasComponent&#45;&gt;AppModule -->
<g id="edge13" class="edge">
<title>AlertasComponent&#45;&gt;AppModule</title>
<path fill="none" stroke="black" d="M621,-85.12C621,-108.46 621,-145.8 621,-145.8 621,-145.8 1889.31,-145.8 1889.31,-145.8"/>
<polygon fill="black" stroke="black" points="1889.31,-149.3 1899.31,-145.8 1889.31,-142.3 1889.31,-149.3"/>
</g>
<!-- AppComponent  -->
<g id="node21" class="node">
<title>AppComponent </title>
<polygon fill="#80b1d3" stroke="black" points="1995.44,-220.8 1886.56,-220.8 1886.56,-184.8 1995.44,-184.8 1995.44,-220.8"/>
<text text-anchor="middle" x="1941" y="-198.6" font-family="Times,serif" font-size="14.00">AppComponent </text>
</g>
<!-- AppModule&#45;&gt;AppComponent  -->
<g id="edge20" class="edge">
<title>AppModule&#45;&gt;AppComponent </title>
<path fill="none" stroke="black" stroke-dasharray="1,5" d="M1941,-153.02C1941,-153.02 1941,-174.53 1941,-174.53"/>
<polygon fill="black" stroke="black" points="1937.5,-174.53 1941,-184.53 1944.5,-174.53 1937.5,-174.53"/>
</g>
<!-- BrowserModule -->
<g id="node15" class="node">
<title>BrowserModule</title>
<polygon fill="#8dd3c7" stroke="black" points="3130.47,-84.8 3127.47,-88.8 3106.47,-88.8 3103.47,-84.8 3023.53,-84.8 3023.53,-48.8 3130.47,-48.8 3130.47,-84.8"/>
<text text-anchor="middle" x="3077" y="-62.6" font-family="Times,serif" font-size="14.00">BrowserModule</text>
</g>
<!-- BrowserModule&#45;&gt;AppModule -->
<g id="edge14" class="edge">
<title>BrowserModule&#45;&gt;AppModule</title>
<path fill="none" stroke="black" d="M3077,-85.12C3077,-108.46 3077,-145.8 3077,-145.8 3077,-145.8 1992.78,-145.8 1992.78,-145.8"/>
<polygon fill="black" stroke="black" points="1992.78,-142.3 1982.78,-145.8 1992.78,-149.3 1992.78,-142.3"/>
</g>
<!-- AppRoutingModule -->
<g id="node16" class="node">
<title>AppRoutingModule</title>
<polygon fill="#8dd3c7" stroke="black" points="3277.27,-84.8 3274.27,-88.8 3253.27,-88.8 3250.27,-84.8 3148.73,-84.8 3148.73,-48.8 3277.27,-48.8 3277.27,-84.8"/>
<text text-anchor="middle" x="3213" y="-62.6" font-family="Times,serif" font-size="14.00">AppRoutingModule</text>
</g>
<!-- AppRoutingModule&#45;&gt;AppModule -->
<g id="edge15" class="edge">
<title>AppRoutingModule&#45;&gt;AppModule</title>
<path fill="none" stroke="black" d="M3213,-84.81C3213,-109.22 3213,-149.8 3213,-149.8 3213,-149.8 1992.96,-149.8 1992.96,-149.8"/>
<polygon fill="black" stroke="black" points="1992.96,-146.3 1982.96,-149.8 1992.96,-153.3 1992.96,-146.3"/>
</g>
<!-- RouterModule  -->
<g id="node24" class="node">
<title>RouterModule </title>
<polygon fill="#fb8072" stroke="black" points="3418.65,-152.8 3317.35,-152.8 3317.35,-116.8 3418.65,-116.8 3418.65,-152.8"/>
<text text-anchor="middle" x="3368" y="-130.6" font-family="Times,serif" font-size="14.00">RouterModule </text>
</g>
<!-- AppRoutingModule&#45;&gt;RouterModule  -->
<g id="edge23" class="edge">
<title>AppRoutingModule&#45;&gt;RouterModule </title>
<path fill="none" stroke="black" stroke-dasharray="5,2" d="M3277.39,-72.8C3319.97,-72.8 3368,-72.8 3368,-72.8 3368,-72.8 3368,-106.53 3368,-106.53"/>
<polygon fill="black" stroke="black" points="3364.5,-106.53 3368,-116.53 3371.5,-106.53 3364.5,-106.53"/>
</g>
<!-- HttpClientModule -->
<g id="node17" class="node">
<title>HttpClientModule</title>
<polygon fill="#8dd3c7" stroke="black" points="2895.16,-84.8 2892.16,-88.8 2871.16,-88.8 2868.16,-84.8 2776.84,-84.8 2776.84,-48.8 2895.16,-48.8 2895.16,-84.8"/>
<text text-anchor="middle" x="2836" y="-62.6" font-family="Times,serif" font-size="14.00">HttpClientModule</text>
</g>
<!-- HttpClientModule&#45;&gt;AppModule -->
<g id="edge16" class="edge">
<title>HttpClientModule&#45;&gt;AppModule</title>
<path fill="none" stroke="black" d="M2836,-84.97C2836,-106.3 2836,-138.8 2836,-138.8 2836,-138.8 1992.67,-138.8 1992.67,-138.8"/>
<polygon fill="black" stroke="black" points="1992.67,-135.3 1982.67,-138.8 1992.67,-142.3 1992.67,-135.3"/>
</g>
<!-- FormsModule -->
<g id="node18" class="node">
<title>FormsModule</title>
<polygon fill="#8dd3c7" stroke="black" points="2758.83,-84.8 2755.83,-88.8 2734.83,-88.8 2731.83,-84.8 2663.17,-84.8 2663.17,-48.8 2758.83,-48.8 2758.83,-84.8"/>
<text text-anchor="middle" x="2711" y="-62.6" font-family="Times,serif" font-size="14.00">FormsModule</text>
</g>
<!-- FormsModule&#45;&gt;AppModule -->
<g id="edge17" class="edge">
<title>FormsModule&#45;&gt;AppModule</title>
<path fill="none" stroke="black" d="M2711,-85.02C2711,-105.17 2711,-134.8 2711,-134.8 2711,-134.8 1992.67,-134.8 1992.67,-134.8"/>
<polygon fill="black" stroke="black" points="1992.67,-131.3 1982.67,-134.8 1992.67,-138.3 1992.67,-131.3"/>
</g>
<!-- ModalModule.forRoot() -->
<g id="node19" class="node">
<title>ModalModule.forRoot()</title>
<polygon fill="#8dd3c7" stroke="black" points="2645.47,-84.8 2642.47,-88.8 2621.47,-88.8 2618.47,-84.8 2492.53,-84.8 2492.53,-48.8 2645.47,-48.8 2645.47,-84.8"/>
<text text-anchor="middle" x="2569" y="-62.6" font-family="Times,serif" font-size="14.00">ModalModule.forRoot()</text>
</g>
<!-- ModalModule.forRoot()&#45;&gt;AppModule -->
<g id="edge18" class="edge">
<title>ModalModule.forRoot()&#45;&gt;AppModule</title>
<path fill="none" stroke="black" d="M2569,-84.91C2569,-104.14 2569,-131.8 2569,-131.8 2569,-131.8 1992.69,-131.8 1992.69,-131.8"/>
<polygon fill="black" stroke="black" points="1992.69,-128.3 1982.69,-131.8 1992.69,-135.3 1992.69,-128.3"/>
</g>
<!-- OrderModule -->
<g id="node20" class="node">
<title>OrderModule</title>
<polygon fill="#8dd3c7" stroke="black" points="3005.19,-84.8 3002.19,-88.8 2981.19,-88.8 2978.19,-84.8 2912.81,-84.8 2912.81,-48.8 3005.19,-48.8 3005.19,-84.8"/>
<text text-anchor="middle" x="2959" y="-62.6" font-family="Times,serif" font-size="14.00">OrderModule</text>
</g>
<!-- OrderModule&#45;&gt;AppModule -->
<g id="edge19" class="edge">
<title>OrderModule&#45;&gt;AppModule</title>
<path fill="none" stroke="black" d="M2959,-84.81C2959,-107.29 2959,-142.8 2959,-142.8 2959,-142.8 1992.8,-142.8 1992.8,-142.8"/>
<polygon fill="black" stroke="black" points="1992.8,-139.3 1982.8,-142.8 1992.8,-146.3 1992.8,-139.3"/>
</g>
<!-- { provide: LocationStrategy, useClass: HashLocationStrategy } -->
<g id="node22" class="node">
<title>{ provide: LocationStrategy, useClass: HashLocationStrategy }</title>
<ellipse fill="#fdb462" stroke="black" cx="280" cy="-66.8" rx="256.11" ry="18"/>
<text text-anchor="middle" x="280" y="-62.6" font-family="Times,serif" font-size="14.00">{ provide: LocationStrategy, useClass: HashLocationStrategy }</text>
</g>
<!-- { provide: LocationStrategy, useClass: HashLocationStrategy }&#45;&gt;AppModule -->
<g id="edge21" class="edge">
<title>{ provide: LocationStrategy, useClass: HashLocationStrategy }&#45;&gt;AppModule</title>
<path fill="none" stroke="black" d="M280,-84.81C280,-109.22 280,-149.8 280,-149.8 280,-149.8 1889.11,-149.8 1889.11,-149.8"/>
<polygon fill="black" stroke="black" points="1889.11,-153.3 1899.11,-149.8 1889.11,-146.3 1889.11,-153.3"/>
</g>
<!-- RouterModule.forRoot(args) -->
<g id="node23" class="node">
<title>RouterModule.forRoot(args)</title>
<polygon fill="#8dd3c7" stroke="black" points="3620.84,-152.8 3617.84,-156.8 3596.84,-156.8 3593.84,-152.8 3443.16,-152.8 3443.16,-116.8 3620.84,-116.8 3620.84,-152.8"/>
<text text-anchor="middle" x="3532" y="-130.6" font-family="Times,serif" font-size="14.00">RouterModule.forRoot(args)</text>
</g>
<!-- RouterModule.forRoot(args)&#45;&gt;AppRoutingModule -->
<g id="edge22" class="edge">
<title>RouterModule.forRoot(args)&#45;&gt;AppRoutingModule</title>
<path fill="none" stroke="black" d="M3532,-116.51C3532,-94.59 3532,-60.8 3532,-60.8 3532,-60.8 3287.55,-60.8 3287.55,-60.8"/>
<polygon fill="black" stroke="black" points="3287.55,-57.3 3277.55,-60.8 3287.55,-64.3 3287.55,-57.3"/>
</g>
</g>
</svg>
